# xmcd CD database file
#
# Track frame offsets:
#	150
#	17943
#	38316
#	58819
#	81662
#	97225
#	124045
#	143161
#	161301
#	178839
#	193160
#	209660
#
# Disc length: 3143 seconds
#
# Revision: 0
# Processed by: cddbd v1.5.1PL0 Copyright (c) Steve Scherf et al.
# Submitted via: CDex 1.51
#
DISCID=b00c450c
DTITLE=Joni Mitchell - Both sides now
DYEAR=2000
DGENRE=Jazz
TTITLE0=Joni Mitchell - You're my thrill
TTITLE1=Joni Mitchell - At last
TTITLE2=Joni Mitchell - Comes love
TTITLE3=Joni Mitchell - You've changed
TTITLE4=Joni Mitchell - Answer me, my love
TTITLE5=Joni Mitchell - A case of you
TTITLE6=Joni Mitchell - Don't go to strangers
TTITLE7=Joni Mitchell - Sometimes i'm happy
TTITLE8=Joni Mitchell - Don't worry bout me
TTITLE9=Joni Mitchell - Stormy weather
TTITLE10=Joni Mitchell - I wish i where in love again
TTITLE11=Joni Mitchell - Both sides now
EXTD=YEAR: 2000
EXTT0=
EXTT1=
EXTT2=
EXTT3=
EXTT4=
EXTT5=
EXTT6=
EXTT7=
EXTT8=
EXTT9=
EXTT10=
EXTT11=
PLAYORDER=
